<svg width="20" height="20" viewBox="0 0 20 20" fill="none" xmlns="http://www.w3.org/2000/svg">
<g clip-path="url(#clip0_1_4789)">
<path d="M10 17.5C9.01509 17.5 8.03982 17.306 7.12987 16.9291C6.21993 16.5522 5.39314 15.9997 4.6967 15.3033C4.00026 14.6069 3.44781 13.7801 3.0709 12.8701C2.69399 11.9602 2.5 10.9849 2.5 10C2.5 9.01509 2.69399 8.03982 3.0709 7.12987C3.44781 6.21993 4.00026 5.39314 4.6967 4.6967C5.39314 4.00026 6.21993 3.44781 7.12987 3.0709C8.03982 2.69399 9.01509 2.5 10 2.5C11.9891 2.5 13.8968 3.20238 15.3033 4.45262C16.7098 5.70286 17.5 7.39856 17.5 9.16667C17.5 10.0507 17.1049 10.8986 16.4016 11.5237C15.6984 12.1488 14.7446 12.5 13.75 12.5H11.6667C11.2949 12.494 10.9318 12.6125 10.6351 12.8367C10.3384 13.0608 10.1252 13.3777 10.0294 13.737C9.93362 14.0963 9.9607 14.4773 10.1064 14.8194C10.252 15.1615 10.5079 15.4451 10.8333 15.625C10.9997 15.7785 11.1138 15.9803 11.1596 16.2021C11.2054 16.4238 11.1806 16.6543 11.0886 16.8612C10.9967 17.068 10.8422 17.2409 10.647 17.3555C10.4517 17.4701 10.2255 17.5206 10 17.5Z" stroke="#8896AB" stroke-width="1.5" stroke-linecap="round" stroke-linejoin="round"/>
<path d="M6.24992 9.16634C6.48004 9.16634 6.66659 8.97979 6.66659 8.74967C6.66659 8.51956 6.48004 8.33301 6.24992 8.33301C6.0198 8.33301 5.83325 8.51956 5.83325 8.74967C5.83325 8.97979 6.0198 9.16634 6.24992 9.16634Z" fill="#8896AB" stroke="#8896AB" stroke-width="1.5" stroke-linecap="round" stroke-linejoin="round"/>
<path d="M9.99992 6.66634C10.23 6.66634 10.4166 6.47979 10.4166 6.24967C10.4166 6.01956 10.23 5.83301 9.99992 5.83301C9.7698 5.83301 9.58325 6.01956 9.58325 6.24967C9.58325 6.47979 9.7698 6.66634 9.99992 6.66634Z" fill="#8896AB" stroke="#8896AB" stroke-width="1.5" stroke-linecap="round" stroke-linejoin="round"/>
<path d="M13.7499 9.16634C13.98 9.16634 14.1666 8.97979 14.1666 8.74967C14.1666 8.51956 13.98 8.33301 13.7499 8.33301C13.5198 8.33301 13.3333 8.51956 13.3333 8.74967C13.3333 8.97979 13.5198 9.16634 13.7499 9.16634Z" fill="#8896AB" stroke="#8896AB" stroke-width="1.5" stroke-linecap="round" stroke-linejoin="round"/>
</g>
<defs>
<clipPath id="clip0_1_4789">
<rect width="20" height="20" fill="white"/>
</clipPath>
</defs>
</svg>
