<svg width="22" height="22" viewBox="0 0 22 22" fill="none" xmlns="http://www.w3.org/2000/svg">
<mask id="mask0_198_1561" style="mask-type:luminance" maskUnits="userSpaceOnUse" x="0" y="0" width="22" height="22">
<path fill-rule="evenodd" clip-rule="evenodd" d="M0 0.000305176H21.493V21.4941H0V0.000305176Z" fill="white"/>
</mask>
<g mask="url(#mask0_198_1561)">
<path fill-rule="evenodd" clip-rule="evenodd" d="M5.1084 18.6753C5.6884 18.6753 6.2354 18.8953 6.8144 19.1283C10.3614 20.7683 14.5564 20.0223 17.2894 17.2903C20.8954 13.6823 20.8954 7.8133 17.2894 4.2073C15.5434 2.46131 13.2214 1.50031 10.7494 1.50031C8.2764 1.50031 5.9534 2.46231 4.2084 4.20831C1.4744 6.94031 0.730399 11.1353 2.3554 14.6483C2.5894 15.2273 2.8154 15.7913 2.8154 16.3773C2.8154 16.9623 2.6144 17.5513 2.4374 18.0713C2.2914 18.4993 2.0704 19.1453 2.2124 19.2873C2.3514 19.4313 3.0014 19.2043 3.4304 19.0573C3.9454 18.8813 4.5294 18.6793 5.1084 18.6753ZM10.7244 21.4943C9.1964 21.4943 7.6584 21.1713 6.2194 20.5053C5.7954 20.3353 5.3984 20.1753 5.1134 20.1753C4.7854 20.1773 4.3444 20.3293 3.9184 20.4763C3.0444 20.7763 1.9564 21.1503 1.1514 20.3483C0.349399 19.5453 0.719399 18.4603 1.0174 17.5873C1.1644 17.1573 1.3154 16.7133 1.3154 16.3773C1.3154 16.1013 1.1824 15.7493 0.978399 15.2423C-0.894601 11.1973 -0.0286009 6.32231 3.1484 3.14731C5.1764 1.11831 7.8754 0.000305176 10.7484 0.000305176C13.6214 0.000305176 16.3214 1.11731 18.3494 3.14631C22.5414 7.3383 22.5414 14.1583 18.3494 18.3503C16.2944 20.4063 13.5274 21.4943 10.7244 21.4943Z" fill="#8896AB"/>
</g>
<path fill-rule="evenodd" clip-rule="evenodd" d="M14.6963 12.163C14.1443 12.163 13.6923 11.716 13.6923 11.163C13.6923 10.61 14.1353 10.163 14.6873 10.163H14.6963C15.2483 10.163 15.6963 10.61 15.6963 11.163C15.6963 11.716 15.2483 12.163 14.6963 12.163Z" fill="#8896AB"/>
<path fill-rule="evenodd" clip-rule="evenodd" d="M10.6875 12.163C10.1355 12.163 9.6835 11.716 9.6835 11.163C9.6835 10.61 10.1255 10.163 10.6785 10.163H10.6875C11.2395 10.163 11.6875 10.61 11.6875 11.163C11.6875 11.716 11.2395 12.163 10.6875 12.163Z" fill="#8896AB"/>
<path fill-rule="evenodd" clip-rule="evenodd" d="M6.6783 12.163C6.1263 12.163 5.6743 11.716 5.6743 11.163C5.6743 10.61 6.1173 10.163 6.6693 10.163H6.6783C7.2303 10.163 7.6783 10.61 7.6783 11.163C7.6783 11.716 7.2303 12.163 6.6783 12.163Z" fill="#8896AB"/>
</svg>
