<svg width="20" height="18" viewBox="0 0 20 18" fill="none" xmlns="http://www.w3.org/2000/svg">
<path d="M15.8334 11.5C17.6743 11.5 19.1667 12.9924 19.1667 14.8333V16.5H17.5M13.3334 8.06164C14.7711 7.69161 15.8334 6.38652 15.8334 4.83332C15.8334 3.28012 14.7711 1.97504 13.3334 1.60501M10.8334 4.83333C10.8334 6.67428 9.34099 8.16667 7.50004 8.16667C5.65909 8.16667 4.16671 6.67428 4.16671 4.83333C4.16671 2.99238 5.65909 1.5 7.50004 1.5C9.34099 1.5 10.8334 2.99238 10.8334 4.83333ZM4.16671 11.5H10.8334C12.6743 11.5 14.1667 12.9924 14.1667 14.8333V16.5H0.833374V14.8333C0.833374 12.9924 2.32576 11.5 4.16671 11.5Z" stroke="#8896AB" stroke-width="1.5" stroke-linecap="round" stroke-linejoin="round"/>
</svg>
