<svg width="23" height="23" viewBox="0 0 23 23" fill="none" xmlns="http://www.w3.org/2000/svg">
<path d="M11.2941 3.76471V5.64706" stroke="white" stroke-width="1.2" stroke-linecap="round"/>
<path d="M11.2941 11.2937L5.70221 5.70953" stroke="white" stroke-width="1.2" stroke-linecap="round"/>
<path d="M18.8235 11.2941L16.9412 11.2941" stroke="white" stroke-width="1.2" stroke-linecap="round"/>
<path d="M11.2941 16.9412V18.8235" stroke="white" stroke-width="1.2" stroke-linecap="round"/>
<path d="M5.64703 11.2941L3.76468 11.2941" stroke="white" stroke-width="1.2" stroke-linecap="round"/>
<path d="M11.2941 3.42355C13.115 3.42355 14.8796 4.05492 16.2872 5.21009C17.6948 6.36526 18.6583 7.97275 19.0135 9.75866C19.3687 11.5446 19.0937 13.3984 18.2354 15.0043C17.377 16.6102 15.9884 17.8688 14.3061 18.5656C12.6238 19.2624 10.7519 19.3544 9.00942 18.8258C7.26693 18.2972 5.76162 17.1808 4.74998 15.6668C3.73834 14.1528 3.28297 12.3348 3.46145 10.5227C3.63993 8.71055 4.44122 7.01636 5.72879 5.72879" stroke="white" stroke-width="1.2" stroke-linecap="round"/>
</svg>
