<svg width="25" height="24" viewBox="0 0 25 24" fill="none" xmlns="http://www.w3.org/2000/svg">
<path fill-rule="evenodd" clip-rule="evenodd" d="M5.47446 10.1262C5.2 10.7229 5.2 11.4018 5.2 12.7595V16.9999C5.2 18.8856 5.2 19.8284 5.78578 20.4142C6.31733 20.9457 7.14285 20.9949 8.7 20.9995V16C8.7 14.8954 9.59543 14 10.7 14H13.7C14.8046 14 15.7 14.8954 15.7 16V20.9995C17.2571 20.9949 18.0827 20.9457 18.6142 20.4142C19.2 19.8284 19.2 18.8856 19.2 16.9999V12.7595C19.2 11.4018 19.2 10.7229 18.9255 10.1262C18.6511 9.52943 18.1356 9.08763 17.1047 8.20401L16.1047 7.34687C14.2414 5.74974 13.3098 4.95117 12.2 4.95117C11.0902 4.95117 10.1586 5.74974 8.29525 7.34687L7.29525 8.20401C6.26436 9.08763 5.74892 9.52943 5.47446 10.1262ZM13.7 20.9999V16H10.7V20.9999H13.7Z" fill="#62B246"/>
</svg>
