<svg width="24" height="25" viewBox="0 0 24 25" fill="none" xmlns="http://www.w3.org/2000/svg">
<g id="Iconly/Light-Outline/Image">
<g id="Image">
<g id="Group 3">
<mask id="mask0_262_2205" style="mask-type:luminance" maskUnits="userSpaceOnUse" x="2" y="2" width="20" height="21">
<path id="Clip 2" fill-rule="evenodd" clip-rule="evenodd" d="M2.00049 2.50024H21.9601V22.45H2.00049V2.50024Z" fill="white"/>
</mask>
<g mask="url(#mask0_262_2205)">
<path id="Fill 1" fill-rule="evenodd" clip-rule="evenodd" d="M7.65049 4C5.12949 4 3.50049 5.727 3.50049 8.399V16.551C3.50049 19.224 5.12949 20.95 7.65049 20.95H16.3005C18.8275 20.95 20.4605 19.224 20.4605 16.551V8.399C20.4605 5.727 18.8275 4 16.3005 4H7.65049ZM16.3005 22.45H7.65049C4.27049 22.45 2.00049 20.079 2.00049 16.551V8.399C2.00049 4.871 4.27049 2.5 7.65049 2.5H16.3005C19.6855 2.5 21.9605 4.871 21.9605 8.399V16.551C21.9605 20.079 19.6855 22.45 16.3005 22.45Z" fill="black"/>
</g>
</g>
<path id="Fill 4" fill-rule="evenodd" clip-rule="evenodd" d="M5.2815 17.6804C5.0955 17.6804 4.9105 17.6124 4.7655 17.4744C4.4645 17.1904 4.4525 16.7144 4.7375 16.4154L6.2655 14.8024C7.0745 13.9434 8.4395 13.9014 9.3025 14.7114L10.2605 15.6834C10.5275 15.9534 10.9615 15.9584 11.2295 15.6944C11.3305 15.5754 13.5085 12.9304 13.5085 12.9304C13.9225 12.4284 14.5065 12.1184 15.1555 12.0544C15.8055 11.9974 16.4365 12.1864 16.9395 12.5994C16.9825 12.6344 17.0215 12.6684 19.2175 14.9234C19.5065 15.2194 19.5015 15.6944 19.2045 15.9834C18.9085 16.2744 18.4325 16.2654 18.1435 15.9694C18.1435 15.9694 16.0945 13.8664 15.9485 13.7244C15.7935 13.5974 15.5445 13.5234 15.2995 13.5474C15.0505 13.5724 14.8265 13.6914 14.6675 13.8844C12.3435 16.7034 12.3155 16.7304 12.2775 16.7674C11.4195 17.6094 10.0345 17.5954 9.1915 16.7354C9.1915 16.7354 8.2615 15.7914 8.2455 15.7724C8.0145 15.5584 7.6025 15.5724 7.3555 15.8334L5.8255 17.4464C5.6775 17.6024 5.4795 17.6804 5.2815 17.6804Z" fill="black"/>
<path id="Fill 6" fill-rule="evenodd" clip-rule="evenodd" d="M8.55769 8.62891C8.00469 8.62891 7.55469 9.07891 7.55469 9.63291C7.55469 10.1869 8.00469 10.6379 8.55869 10.6379C9.11269 10.6379 9.56369 10.1869 9.56369 9.63291C9.56369 9.07991 9.11269 8.62991 8.55769 8.62891ZM8.55869 12.1379C7.17769 12.1379 6.05469 11.0139 6.05469 9.63291C6.05469 8.25191 7.17769 7.12891 8.55869 7.12891C9.94069 7.12991 11.0637 8.25391 11.0637 9.63291C11.0637 11.0139 9.93969 12.1379 8.55869 12.1379Z" fill="black"/>
</g>
</g>
</svg>
