<svg width="203" height="40" viewBox="0 0 203 40" fill="none" xmlns="http://www.w3.org/2000/svg">
<g clip-path="url(#clip0_1_1398)">
<path d="M71.1673 38.4724C65.1074 37.3154 60.8128 32.6939 60.1 26.6524C59.8183 23.8414 60.4119 21.0113 61.7962 18.5662C63.083 16.5064 64.8442 14.8011 66.9253 13.6001C68.8993 12.4341 71.1597 11.8744 73.4364 11.9878C75.5246 11.8611 77.6055 12.3388 79.4407 13.3662C80.8812 14.0539 83.3323 15.9493 83.3323 16.3278C82.4887 17.2508 81.588 18.117 80.6391 18.9247L77.9475 21.3631L77.4408 20.9493C73.8529 17.9401 68.629 19.6878 67.7133 24.1862C66.9058 28.1339 70.641 31.9093 74.5672 31.0739C75.728 30.8794 76.8022 30.324 77.6437 29.4831L78.37 28.7939L81.3534 30.9093C82.403 31.5924 83.3924 32.3708 84.3082 33.2308C84.3082 33.5754 82.1473 35.6339 80.9414 36.4124C79.3584 37.4196 77.6015 38.1074 75.7656 38.4385C74.2505 38.7646 72.6868 38.7761 71.1673 38.4724ZM0.0270667 25.2816V12.0785H7.47341V30.9431H12.8567V38.3831L6.42833 38.417L0 38.4724L0.0270667 25.2816ZM14.2386 38.3001C14.2386 38.2462 15.5107 34.0231 17.046 28.9001C18.5798 23.7739 20.3647 17.9324 20.9902 15.8662L22.109 12.0924H30.4635L30.6996 12.9185C31.244 14.7231 37.9565 36.9785 38.179 37.6739L38.4136 38.397L34.6769 38.3631L30.9207 38.3139L30.5974 37.0124C30.4962 36.4928 30.3315 35.9883 30.1072 35.5108C29.9718 35.3385 28.9884 35.2831 26.1479 35.2831H22.3781L22.2097 35.9247C22.109 36.2693 21.939 36.9647 21.8338 37.4816L21.6308 38.397H17.9272C15.9017 38.3831 14.2386 38.3493 14.2386 38.3001ZM27.7704 27.9693C27.7704 27.9693 27.4336 26.5493 27.0306 24.8831C26.3028 21.9078 26.2832 21.8724 26.1133 22.5478C26.0126 22.9262 25.6772 24.3108 25.354 25.6262L24.7615 28.0031H26.2697C27.0967 28.0031 27.7704 27.9831 27.7704 27.9693ZM39.6121 25.2339V12.077H46.6539L48.8824 17.2354L51.1169 22.3739V12.077H58.7317V38.3816H51.5425L49.0568 33.6693L46.5532 28.9524V38.3816H39.6121V25.2324V25.2339ZM85.6284 25.2339V12.077H103.536V19.6939H93.0732V22.1124H101.873V28.5185H93.0732V30.9416H103.536V38.3816H85.6269V25.2324L85.6284 25.2339ZM105.252 25.2339V12.077H112.657L114.906 15.1893C116.139 16.9047 117.208 18.3431 117.289 18.3924C118.193 17.4231 119.018 16.3831 119.759 15.2785L122.11 12.077H129.467V38.3816H122.002L121.968 31.6862L121.914 24.9708L119.618 28.1185L117.317 31.2724L115.047 28.1185L112.779 24.9708L112.731 31.6862V38.3816H105.252V25.2324V25.2339ZM130.97 25.2339V12.077H148.728V19.6939H138.408V22.1124H147.04V28.5185H138.408V30.9416H148.728V38.3816H130.97V25.2324V25.2339Z" fill="white"/>
<path d="M184.086 11.7323V20.8738C184.086 30.9292 184.086 31.0462 183.023 33.0923C182.082 34.6681 180.816 36.0148 179.314 37.0385C177.921 37.8982 176.322 38.3421 174.696 38.32C173.767 38.4042 172.831 38.3393 171.921 38.1277C169.294 37.3179 167.082 35.4848 165.762 33.0231C164.684 30.8046 164.631 30.3585 164.631 20.5292V11.7323H172.076V28.9538C172.091 29.5524 172.329 30.1225 172.743 30.5463C173.156 30.9701 173.713 31.2152 174.298 31.231C174.883 31.2468 175.452 31.0321 175.886 30.6312C176.321 30.2303 176.589 29.6739 176.634 29.0769V11.7338H184.086V11.7323Z" fill="white"/>
<path d="M186.961 27.9815V17.5815L191.411 17.6508C195.672 17.7185 195.895 17.74 197.215 18.1877C200.48 19.2954 202.393 21.4031 202.896 24.4892C203.176 26.2628 202.89 28.0813 202.08 29.6755C201.271 31.2697 199.981 32.5546 198.402 33.34C197.355 33.8617 196.211 34.1486 195.047 34.1815L193.56 34.2846V38.3831H186.961V27.9831V27.9815ZM195.767 26.9769C195.994 26.7825 196.152 26.5166 196.216 26.2208C196.28 25.925 196.246 25.6158 196.121 25.3415C196.038 25.1596 195.917 24.9984 195.767 24.8692C195.601 24.6786 195.391 24.5329 195.156 24.4451C194.921 24.3574 194.669 24.3302 194.421 24.3662H193.56V27.48H194.421C194.669 27.5183 194.922 27.4923 195.157 27.4044C195.392 27.3165 195.602 27.1695 195.767 26.9769ZM189.413 12.5108C188.301 11.9046 187.318 11.3662 187.217 11.3323C187.889 9.97231 188.662 8.66924 189.533 7.43385L192.038 3.61077L190.799 4.37539C190.125 4.80924 188.369 5.91077 186.874 6.8677L184.181 8.57693L183.118 6.41385C182.696 5.70863 182.387 4.93892 182.202 4.13385C182.545 3.92154 194.758 -0.0953804 194.824 0.00154271C194.892 0.0984658 194.3 2.72308 193.552 5.96C193.025 8.22247 192.514 10.4887 192.018 12.7585C191.916 13.2615 191.748 13.66 191.647 13.66C190.878 13.3284 190.131 12.9445 189.413 12.5108Z" fill="white"/>
</g>
<defs>
<clipPath id="clip0_1_1398">
<rect width="203" height="40" fill="white"/>
</clipPath>
</defs>
</svg>
