<svg width="21" height="33" viewBox="0 0 21 33" fill="none" xmlns="http://www.w3.org/2000/svg">
<path d="M10.56 26.436C9.232 26.436 7.988 26.216 6.828 25.776C5.668 25.336 4.648 24.712 3.768 23.904C2.888 23.088 2.2 22.128 1.704 21.024C1.208 19.92 0.96 18.708 0.96 17.388C0.96 16.068 1.208 14.828 1.704 13.668C2.2 12.508 2.888 11.488 3.768 10.608C4.648 9.728 5.668 9.04 6.828 8.544C7.988 8.048 9.232 7.8 10.56 7.8C11.896 7.8 13.144 8.052 14.304 8.556C15.464 9.052 16.48 9.74 17.352 10.62C18.232 11.5 18.916 12.52 19.404 13.68C19.9 14.832 20.148 16.068 20.148 17.388C20.148 18.076 20.06 18.76 19.884 19.44C19.716 20.112 19.468 20.724 19.14 21.276C18.82 21.828 18.42 22.272 17.94 22.608C17.468 22.936 16.928 23.1 16.32 23.1C15.848 23.1 15.38 22.996 14.916 22.788C14.46 22.572 14.072 22.28 13.752 21.912C13.44 21.544 13.26 21.136 13.212 20.688C12.884 21.136 12.464 21.496 11.952 21.768C11.448 22.032 10.868 22.164 10.212 22.164C9.34 22.164 8.54 21.952 7.812 21.528C7.092 21.096 6.516 20.52 6.084 19.8C5.66 19.072 5.448 18.268 5.448 17.388C5.448 16.508 5.66 15.708 6.084 14.988C6.516 14.268 7.092 13.696 7.812 13.272C8.54 12.84 9.34 12.624 10.212 12.624C10.844 12.624 11.436 12.752 11.988 13.008C12.548 13.264 12.984 13.604 13.296 14.028V12.864L14.868 13.14V19.836C14.868 20.196 15.004 20.496 15.276 20.736C15.548 20.968 15.86 21.084 16.212 21.084C16.66 21.084 17.024 20.888 17.304 20.496C17.592 20.096 17.8 19.612 17.928 19.044C18.064 18.468 18.132 17.916 18.132 17.388C18.132 16.34 17.932 15.36 17.532 14.448C17.14 13.528 16.596 12.724 15.9 12.036C15.204 11.34 14.4 10.796 13.488 10.404C12.576 10.012 11.6 9.816 10.56 9.816C9.52 9.816 8.54 10.012 7.62 10.404C6.708 10.796 5.904 11.34 5.208 12.036C4.512 12.724 3.964 13.528 3.564 14.448C3.172 15.36 2.976 16.34 2.976 17.388C2.976 18.436 3.172 19.392 3.564 20.256C3.956 21.112 4.5 21.852 5.196 22.476C5.892 23.1 6.696 23.584 7.608 23.928C8.528 24.264 9.512 24.432 10.56 24.432V26.436ZM10.356 20.592C10.948 20.592 11.46 20.432 11.892 20.112C12.324 19.792 12.66 19.38 12.9 18.876C13.14 18.364 13.26 17.828 13.26 17.268C13.26 16.732 13.148 16.232 12.924 15.768C12.7 15.296 12.372 14.92 11.94 14.64C11.508 14.352 10.98 14.208 10.356 14.208C9.764 14.208 9.228 14.352 8.748 14.64C8.268 14.92 7.884 15.3 7.596 15.78C7.308 16.26 7.164 16.796 7.164 17.388C7.164 17.988 7.308 18.528 7.596 19.008C7.892 19.488 8.28 19.872 8.76 20.16C9.248 20.448 9.78 20.592 10.356 20.592Z" fill="white"/>
</svg>
