<svg width="19" height="20" viewBox="0 0 19 20" fill="none" xmlns="http://www.w3.org/2000/svg">
<path d="M6.40001 15V16C6.40001 16.394 6.47761 16.7841 6.62837 17.1481C6.77913 17.512 7.00011 17.8427 7.27869 18.1213C7.55726 18.3999 7.88798 18.6209 8.25196 18.7716C8.61594 18.9224 9.00604 19 9.40001 19C9.79397 19 10.1841 18.9224 10.5481 18.7716C10.912 18.6209 11.2428 18.3999 11.5213 18.1213C11.7999 17.8427 12.0209 17.512 12.1716 17.1481C12.3224 16.7841 12.4 16.394 12.4 16V15M15.4 7C15.4 9.99999 17.4 15 17.4 15H1.40001C1.40001 15 3.40001 11 3.40001 7C3.40001 3.732 6.13201 1 9.40001 1C12.668 1 15.4 3.732 15.4 7Z" stroke="#556987" stroke-width="1.5" stroke-linecap="round" stroke-linejoin="round"/>
</svg>
