<svg width="16" height="18" viewBox="0 0 16 18" fill="none" xmlns="http://www.w3.org/2000/svg">
<path d="M5.50004 13.1667V14C5.50004 14.3283 5.5647 14.6534 5.69034 14.9567C5.81598 15.26 6.00013 15.5356 6.23227 15.7678C6.46442 15.9999 6.74002 16.1841 7.04333 16.3097C7.34665 16.4353 7.67174 16.5 8.00004 16.5C8.32835 16.5 8.65344 16.4353 8.95675 16.3097C9.26006 16.1841 9.53566 15.9999 9.76781 15.7678C9.99995 15.5356 10.1841 15.26 10.3097 14.9567C10.4354 14.6534 10.5 14.3283 10.5 14V13.1667M13 6.5C13 8.99999 14.6667 13.1667 14.6667 13.1667H1.33337C1.33337 13.1667 3.00004 9.83332 3.00004 6.5C3.00004 3.77667 5.27671 1.5 8.00004 1.5C10.7234 1.5 13 3.77667 13 6.5Z" stroke="#8896AB" stroke-width="1.5" stroke-linecap="round" stroke-linejoin="round"/>
</svg>
