<svg width="23" height="23" viewBox="0 0 23 23" fill="none" xmlns="http://www.w3.org/2000/svg">
<path d="M11.4706 20C10.3582 20 9.25673 19.7809 8.22903 19.3552C7.20133 18.9295 6.26754 18.3056 5.48098 17.519C4.69441 16.7324 4.07047 15.7986 3.64478 14.7709C3.2191 13.7432 3 12.6418 3 11.5294C3 10.417 3.2191 9.31554 3.64479 8.28784C4.07047 7.26014 4.69441 6.32635 5.48098 5.53978C6.26755 4.75322 7.20134 4.12928 8.22904 3.70359C9.25673 3.27791 10.3582 3.05881 11.4706 3.05881C12.583 3.05881 13.6844 3.27791 14.7121 3.70359C15.7398 4.12928 16.6736 4.75322 17.4602 5.53979C18.2468 6.32635 18.8707 7.26014 19.2964 8.28784C19.7221 9.31554 19.9412 10.417 19.9412 11.5294C19.9412 12.6418 19.7221 13.7433 19.2964 14.771C18.8707 15.7986 18.2468 16.7324 17.4602 17.519C16.6736 18.3056 15.7398 18.9295 14.7121 19.3552C13.6844 19.7809 12.583 20 11.4706 20L11.4706 20Z" stroke="white" stroke-width="2" stroke-linecap="round"/>
<path d="M8.64703 8.70587L14.2941 14.3529" stroke="white" stroke-width="2" stroke-linecap="round"/>
<path d="M14.2941 8.70587L8.64707 14.3529" stroke="white" stroke-width="2" stroke-linecap="round"/>
</svg>
