<svg width="20" height="20" viewBox="0 0 20 20" fill="none" xmlns="http://www.w3.org/2000/svg">
<path d="M13.3334 12.5H6.66671C4.82576 12.5 3.33337 13.9924 3.33337 15.8333V17.5H16.6667V15.8333C16.6667 13.9924 15.1743 12.5 13.3334 12.5Z" stroke="#8896AB" stroke-width="1.5" stroke-linecap="round" stroke-linejoin="round"/>
<path d="M10 9.16667C11.841 9.16667 13.3334 7.67428 13.3334 5.83333C13.3334 3.99238 11.841 2.5 10 2.5C8.15909 2.5 6.66671 3.99238 6.66671 5.83333C6.66671 7.67428 8.15909 9.16667 10 9.16667Z" stroke="#8896AB" stroke-width="1.5" stroke-linecap="round" stroke-linejoin="round"/>
<path d="M16.6667 14.167C15.2871 14.167 14.1667 15.2873 14.1667 16.667C14.1667 18.0467 15.2871 19.167 16.6667 19.167C18.0464 19.167 19.1667 18.0467 19.1667 16.667C19.1667 15.2873 18.0464 14.167 16.6667 14.167" fill="#8896AB"/>
<path d="M16.6667 14.167C15.2871 14.167 14.1667 15.2873 14.1667 16.667C14.1667 18.0467 15.2871 19.167 16.6667 19.167C18.0464 19.167 19.1667 18.0467 19.1667 16.667C19.1667 15.2873 18.0464 14.167 16.6667 14.167" stroke="#F2F4F7"/>
</svg>
